<svg width="72" height="72" viewBox="0 0 72 72" fill="none" xmlns="http://www.w3.org/2000/svg">
<path d="M46.032 3H25.968C13.2831 3 3 13.2831 3 25.968V46.032C3 58.7169 13.2831 69 25.968 69H46.032C58.7169 69 69 58.7169 69 46.032V25.968C69 13.2831 58.7169 3 46.032 3Z" fill="#83EEB3"/>
<path d="M21.165 21.939C20.128 21.9378 19.114 22.2442 18.2513 22.8195C17.3886 23.3948 16.7159 24.2131 16.3184 25.1709C15.9208 26.1286 15.8164 27.1827 16.0182 28.1999C16.22 29.217 16.7189 30.1514 17.452 30.8848C18.185 31.6183 19.1191 32.1178 20.1361 32.3202C21.1531 32.5226 22.2073 32.4187 23.1653 32.0217C24.1233 31.6248 24.9419 30.9526 25.5177 30.0902C26.0935 29.2277 26.4006 28.2139 26.4 27.177C26.3992 25.7885 25.8475 24.4571 24.866 23.4751C23.8845 22.493 22.5534 21.9406 21.165 21.939Z" fill="#55D28E"/>
<path d="M50.8742 21.939C49.8368 21.936 48.8219 22.2409 47.958 22.8152C47.0941 23.3894 46.42 24.207 46.0211 25.1646C45.6223 26.1222 45.5165 27.1766 45.7173 28.1943C45.918 29.2121 46.4163 30.1473 47.149 30.8817C47.8816 31.616 48.8157 32.1164 49.833 32.3195C50.8503 32.5226 51.9049 32.4193 52.8634 32.0226C53.8219 31.6259 54.6411 30.9537 55.2173 30.0911C55.7935 29.2285 56.1008 28.2143 56.1002 27.177C56.0994 25.7901 55.5489 24.4601 54.5694 23.4783C53.5898 22.4965 52.261 21.943 50.8742 21.939Z" fill="#55D28E"/>
<path d="M42 33.6209C41.874 33.6237 41.7497 33.6512 41.6342 33.702C41.5188 33.7528 41.4145 33.8258 41.3273 33.9169C41.2401 34.008 41.1717 34.1154 41.126 34.2329C41.0803 34.3505 41.0583 34.4759 41.061 34.6019C41.0398 36.0658 40.5095 37.4766 39.561 38.5919C39.0882 39.0415 38.5283 39.3895 37.9159 39.6144C37.3035 39.8394 36.6515 39.9365 36 39.8999C35.35 39.9377 34.6991 39.8428 34.0869 39.621C33.4747 39.3992 32.9141 39.0552 32.439 38.6099C31.4853 37.493 30.9544 36.0765 30.939 34.6079C30.9414 34.4819 30.9189 34.3566 30.8729 34.2392C30.8268 34.1218 30.7581 34.0146 30.6706 33.9238C30.5831 33.833 30.4786 33.7603 30.363 33.7099C30.2475 33.6595 30.1231 33.6323 29.997 33.6299C29.871 33.6276 29.7457 33.6501 29.6283 33.6961C29.5109 33.7422 29.4038 33.8109 29.3129 33.8984C29.2221 33.9859 29.1494 34.0904 29.099 34.2059C29.0486 34.3215 29.0214 34.4459 29.019 34.5719C29.0219 36.5511 29.7461 38.4613 31.056 39.9449C31.708 40.5787 32.4833 41.0716 33.3338 41.3931C34.1843 41.7147 35.0919 41.8579 36 41.8139C36.9084 41.8563 37.8157 41.7114 38.6657 41.3884C39.5157 41.0653 40.2902 40.5709 40.941 39.9359C42.2495 38.4514 42.9735 36.5418 42.978 34.5629C42.9717 34.3088 42.8656 34.0674 42.6825 33.8911C42.4994 33.7148 42.2542 33.6177 42 33.6209Z" fill="#55D28E"/>
<path d="M69 41.814C64.9207 47.9228 59.3792 52.9152 52.8792 56.337C46.3792 59.7588 39.127 61.5016 31.782 61.407C15.156 61.407 12.093 58.407 4.35596 53.82C5.96013 58.2655 8.89597 62.1083 12.7634 64.8248C16.6309 67.5412 21.2418 68.9992 25.968 69H46.032C52.1234 69 57.9655 66.5801 62.2728 62.2728C66.5801 57.9655 69 52.1235 69 46.032V41.814Z" fill="#61E79D"/>
</svg>
